<?xml version="1.0" standalone="no"?>
<!DOCTYPE svg PUBLIC "-//W3C//DTD SVG 20010904//EN"
 "http://www.w3.org/TR/2001/REC-SVG-20010904/DTD/svg10.dtd">
<svg version="1.0" xmlns="http://www.w3.org/2000/svg"
 width="400.000000pt" height="400.000000pt" viewBox="0 0 400.000000 400.000000"
 preserveAspectRatio="xMidYMid meet">

<g transform="translate(0.000000,400.000000) scale(0.100000,-0.100000)"
fill="#000000" stroke="none">
<path d="M1385 3453 c-16 -3 -93 -20 -170 -39 -79 -19 -180 -37 -232 -40 -155
-10 -162 -16 -57 -50 39 -12 87 -32 108 -45 20 -12 39 -19 42 -16 4 4 -24 24
-102 74 -15 9 -1 10 67 6 55 -4 93 -2 107 6 11 6 23 7 26 3 3 -5 45 -12 93
-15 109 -8 146 -18 207 -57 41 -27 52 -30 80 -21 17 5 56 11 87 13 53 4 58 3
73 -23 27 -46 22 -52 -34 -45 -72 10 -74 -9 -10 -89 29 -35 57 -62 62 -59 4 3
13 -7 18 -21 18 -47 30 -16 30 76 0 70 -4 98 -20 129 -11 22 -20 51 -20 65 0
38 -54 83 -123 102 -37 11 -56 21 -53 29 3 7 -2 15 -10 18 -17 7 -121 6 -169
-1z m-15 -33 c-8 -5 -26 -9 -40 -9 -23 1 -23 2 5 9 43 11 52 11 35 0z m158 -2
c17 -17 15 -28 -7 -28 -14 0 -19 6 -18 20 1 23 8 25 25 8z m109 -57 c17 -10
17 -10 -2 -10 -11 0 -31 6 -45 14 l-25 15 27 -4 c15 -3 35 -9 45 -15z"/>
<path d="M1125 3300 c3 -5 12 -7 20 -3 21 7 19 13 -6 13 -11 0 -18 -4 -14 -10z"/>
<path d="M1235 3265 c-16 -8 -24 -14 -17 -15 6 0 12 -7 12 -15 0 -8 4 -15 9
-15 5 0 11 -9 14 -19 2 -10 14 -24 26 -30 18 -10 25 -8 47 14 l25 25 19 -22
c27 -32 25 -11 -2 28 -23 34 -67 65 -90 63 -7 0 -26 -7 -43 -14z"/>
<path d="M1105 3230 c8 -16 15 -36 15 -44 0 -22 -43 -30 -72 -15 -42 24 -254
12 -246 -13 2 -6 32 -17 66 -24 35 -7 87 -24 117 -38 52 -25 54 -25 84 -8 17
9 31 21 31 27 0 5 -5 4 -12 -3 -17 -17 -43 -15 -128 12 -94 30 -76 42 51 33
81 -6 91 -5 109 13 12 12 19 24 17 28 -20 43 -32 62 -39 62 -5 0 -2 -13 7 -30z"/>
<path d="M1395 3133 c7 -32 81 -133 95 -133 24 0 6 -17 -44 -42 l-54 -26 -6
23 c-4 17 -29 34 -92 64 -47 23 -92 41 -101 41 -25 0 -9 -52 37 -120 22 -32
40 -61 40 -64 0 -13 -65 -37 -132 -51 -40 -8 -83 -17 -95 -21 -22 -6 -22 -5
-11 26 9 28 8 34 -6 42 -9 5 -16 16 -16 23 0 8 -7 15 -15 15 -9 0 -15 9 -15
24 0 13 -7 27 -15 30 -12 4 -14 10 -5 25 13 26 13 31 -5 31 -20 0 -19 19 2 42
9 10 11 18 5 18 -6 0 -20 -15 -31 -34 -25 -41 -20 -104 10 -132 11 -9 19 -23
19 -31 0 -7 11 -18 25 -23 31 -12 32 -38 3 -49 -28 -11 -61 -46 -80 -86 -22
-43 -44 -195 -30 -204 14 -8 47 -93 67 -172 32 -123 107 -291 174 -390 97
-142 251 -274 369 -314 55 -19 193 -44 186 -34 -3 5 -15 9 -28 9 -31 0 -144
38 -182 61 -53 33 -148 112 -185 154 -19 22 -38 42 -42 43 -10 5 -117 164
-145 217 -62 116 -123 299 -124 376 -1 31 -7 53 -15 58 -10 5 10 22 64 57 104
67 99 65 117 58 20 -8 21 -40 1 -48 -21 -8 -19 -34 4 -48 17 -10 19 -20 14
-62 -3 -28 -9 -55 -14 -60 -11 -12 -12 -46 -1 -46 15 0 44 62 38 82 -3 12 0
30 6 41 8 15 5 26 -11 48 -18 24 -19 32 -9 48 10 16 9 23 -5 39 -9 10 -17 21
-17 25 0 12 39 27 108 42 78 16 129 6 208 -40 55 -32 174 -133 174 -147 0 -6
-10 -3 -22 6 -90 65 -96 40 -13 -44 38 -39 64 -70 57 -70 -7 0 -48 23 -92 50
-44 28 -80 48 -80 45 0 -7 76 -75 117 -104 29 -22 32 -26 19 -39 -23 -24 -62
-6 -131 58 -36 33 -67 60 -70 60 -11 0 14 -36 49 -69 42 -41 45 -51 13 -51
-31 0 -100 50 -123 89 -19 33 -44 48 -44 28 0 -22 60 -86 107 -114 40 -23 49
-25 76 -15 20 7 36 8 48 2 29 -16 77 -12 88 7 8 14 13 15 35 5 30 -13 39 -33
68 -149 13 -52 26 -83 35 -83 7 0 13 -6 13 -14 0 -8 3 -21 6 -30 3 -9 2 -16
-2 -16 -15 1 -59 71 -94 152 -19 42 -36 75 -38 74 -6 -6 70 -190 89 -218 14
-19 16 -29 7 -34 -15 -10 -118 100 -158 169 -16 28 -30 47 -30 41 0 -6 22 -48
49 -92 38 -63 45 -82 33 -82 -48 1 -119 78 -172 184 -29 59 -39 70 -57 68 -33
-5 -75 22 -128 80 l-48 53 21 -42 c12 -23 26 -44 32 -48 5 -3 10 -16 10 -27 0
-22 63 -143 80 -153 15 -9 12 -52 -4 -58 -7 -3 -49 25 -93 63 -57 49 -88 84
-107 121 -14 29 -26 45 -26 36 0 -36 54 -122 108 -172 54 -50 76 -69 197 -164
107 -85 403 -220 599 -275 74 -21 80 -24 103 -66 14 -25 43 -69 64 -99 22 -30
39 -60 39 -68 0 -30 -65 -5 -135 52 -59 48 -107 75 -132 75 -30 0 -56 -40 -47
-74 8 -32 26 -29 34 5 3 13 13 25 21 27 8 1 51 -21 95 -49 83 -55 136 -74 164
-59 18 10 38 -18 160 -225 29 -49 78 -128 108 -175 31 -47 98 -159 150 -250
117 -206 138 -235 159 -219 33 28 45 70 39 131 -4 32 -5 58 -3 58 3 0 39 -51
80 -112 41 -62 86 -123 99 -136 22 -20 26 -21 38 -7 8 9 10 29 7 50 -6 39 -3
41 33 20 64 -37 89 6 44 76 -26 42 -210 288 -224 299 -3 3 -27 39 -52 80 -26
41 -81 116 -123 165 -102 119 -193 237 -240 308 -21 31 -40 57 -42 57 -6 0 3
-13 51 -85 79 -115 81 -123 17 -60 -34 33 -61 67 -61 75 0 9 -13 34 -30 56
-36 48 -38 62 -5 40 14 -9 25 -14 25 -11 0 3 16 -2 37 -10 20 -8 38 -13 40
-11 2 2 -6 19 -17 37 -16 25 -20 28 -15 10 4 -13 3 -21 -1 -19 -5 3 -35 17
-67 32 -54 26 -56 29 -43 48 14 20 14 25 1 63 -4 11 -7 34 -6 50 1 21 -11 50
-39 94 -23 35 -43 61 -45 59 -3 -2 11 -35 31 -72 29 -53 33 -70 24 -81 -9 -11
-9 -18 3 -30 22 -21 32 -58 18 -63 -6 -2 -18 -10 -25 -18 -12 -11 -22 -11 -67
1 -30 8 -99 26 -154 39 -227 56 -516 187 -684 311 -76 56 -85 90 -10 39 40
-27 55 -32 70 -24 14 8 29 5 59 -10 23 -12 49 -20 59 -18 9 2 39 -16 66 -40
27 -24 85 -61 129 -82 93 -45 309 -123 299 -107 -4 6 4 8 23 3 16 -4 52 -9 79
-12 47 -5 45 -3 -37 25 -110 38 -213 90 -303 152 -107 74 -107 74 -103 109 l3
31 129 -96 c116 -87 340 -214 353 -202 2 3 -24 22 -58 42 -34 20 -80 51 -103
69 -23 18 -76 56 -118 85 -43 28 -103 72 -133 96 -50 41 -86 62 -57 33 19 -19
14 -30 -7 -19 -14 8 -21 26 -26 73 -3 35 -9 71 -11 81 -8 27 17 20 61 -19 39
-34 40 -35 8 -19 -50 24 -43 -3 15 -57 111 -104 472 -340 472 -309 0 16 -74
103 -137 162 -68 63 -303 223 -388 264 -53 26 -55 29 -55 66 0 31 3 37 16 32
31 -12 9 21 -26 39 -18 10 -43 30 -55 44 -21 26 -21 29 -6 56 16 28 15 30 -13
50 -32 24 -76 30 -76 11 0 -7 -24 4 -54 25 -59 42 -110 66 -174 82 -59 15 -43
30 31 30 34 1 73 7 86 14 14 8 41 11 67 8 34 -3 45 -1 50 12 4 12 19 16 54 16
44 0 52 4 79 37 41 50 39 65 -3 24 -32 -31 -35 -32 -94 -25 -53 6 -63 4 -68
-11 -5 -13 -14 -15 -36 -11 -18 3 -41 0 -58 -9 -16 -8 -55 -15 -89 -15 -41 0
-64 -5 -75 -16 -9 -9 -46 -22 -83 -30 -37 -7 -83 -24 -102 -37 -82 -54 -168
-107 -173 -107 -3 0 -4 10 0 22 5 19 2 21 -25 15 l-30 -6 8 42 c4 23 8 45 9
48 0 4 9 18 21 33 18 23 22 25 36 10 9 -8 22 -13 30 -10 8 3 60 15 116 26 85
18 119 30 202 78 183 104 312 162 363 164 l47 1 -42 4 c-34 3 -43 8 -43 23 0
13 -10 20 -32 25 -18 4 -70 24 -115 46 -100 48 -118 50 -108 12z m-50 -799
c13 -9 38 -14 56 -12 31 3 33 1 59 -63 15 -36 37 -80 49 -98 26 -35 23 -46 -8
-36 -31 9 -136 122 -166 177 -28 52 -27 56 10 32z m401 -29 c17 -41 20 -91 3
-63 -5 10 -16 36 -24 58 -18 50 0 54 21 5z m275 -152 c13 -16 12 -17 -3 -4
-17 13 -22 21 -14 21 2 0 10 -8 17 -17z m-191 -118 c11 -13 10 -14 -4 -9 -9 3
-16 10 -16 15 0 13 6 11 20 -6z m55 -89 c32 -24 9 -18 -55 14 -33 17 -60 37
-60 44 0 27 25 23 60 -10 19 -18 44 -40 55 -48z m347 -242 c3 -2 9 -17 12 -32
6 -24 46 -84 136 -202 14 -19 68 -91 120 -160 52 -69 119 -154 150 -190 130
-150 166 -222 175 -354 7 -84 16 -94 -114 124 -54 91 -141 227 -192 303 -52
76 -124 184 -161 240 -37 56 -96 139 -132 184 -36 45 -66 86 -66 93 0 10 51 6
72 -6z m102 -41 c8 -16 51 -73 96 -128 88 -107 178 -220 261 -325 27 -35 83
-112 122 -172 40 -59 77 -107 84 -108 7 0 16 8 22 18 6 11 13 14 19 7 15 -16
83 -183 80 -197 -1 -7 3 -22 9 -33 17 -31 32 -95 23 -95 -5 0 -28 28 -51 63
-23 34 -65 91 -93 126 -28 36 -58 85 -67 111 -22 63 -51 107 -166 251 -55 68
-135 171 -178 229 -43 58 -107 142 -142 186 -34 45 -63 85 -63 88 0 18 31 2
44 -21z m67 7 c5 0 9 -9 9 -20 0 -24 -8 -25 -32 -3 -22 20 -24 37 -2 29 9 -3
20 -6 25 -6z m699 -902 c53 -88 53 -103 1 -72 -23 14 -56 84 -89 189 -7 22 51
-54 88 -117z"/>
<path d="M1782 2909 l-2 -96 48 -44 c26 -25 68 -60 94 -78 57 -41 108 -103
108 -131 0 -11 10 -40 22 -63 12 -23 29 -67 39 -97 10 -30 18 -45 18 -34 1 12
-6 38 -15 59 -12 28 -12 36 -2 33 16 -6 143 -192 157 -231 9 -24 -1 -18 -60
36 -62 58 -129 99 -129 78 0 -29 199 -214 223 -206 24 9 90 -109 178 -320 18
-44 42 -93 52 -110 l19 -30 -7 40 c-8 46 -100 272 -135 331 -14 23 -45 76 -70
119 -78 132 -188 296 -219 327 -17 17 -36 49 -42 72 -11 42 -56 91 -196 213
l-60 52 -10 88 -10 88 -1 -96z"/>
<path d="M1710 2784 c0 -20 48 -63 77 -71 14 -3 30 0 36 6 8 8 8 11 -1 11 -6
0 -28 14 -48 32 -41 36 -64 44 -64 22z"/>
<path d="M1585 2740 c-21 -34 38 -97 80 -86 15 4 28 -1 39 -13 10 -11 31 -25
48 -32 27 -11 32 -10 45 7 12 15 16 16 20 5 7 -17 72 -81 83 -81 15 0 40 12
40 19 0 4 -20 29 -45 55 -39 42 -47 47 -74 41 -23 -5 -38 -1 -63 18 -18 14
-43 28 -55 31 -11 4 -24 14 -27 22 -3 8 -10 13 -15 10 -4 -3 -22 -1 -39 4 -18
5 -34 5 -37 0z"/>
<path d="M1509 2709 c17 -14 27 -17 35 -9 13 13 -9 30 -39 30 -19 -1 -18 -2 4
-21z"/>
<path d="M1295 2607 c14 -24 23 -51 20 -59 -3 -8 1 -20 9 -27 12 -10 17 -9 25
7 8 15 3 29 -22 67 -41 62 -64 71 -32 12z"/>
<path d="M1720 2602 c0 -21 92 -86 112 -80 7 3 -16 23 -50 47 -34 23 -62 38
-62 33z"/>
<path d="M1920 2490 c0 -25 23 -51 60 -70 76 -39 99 -13 27 31 -69 43 -87 51
-87 39z"/>
<path d="M1840 2470 c0 -12 74 -67 102 -76 22 -6 41 6 20 13 -7 3 -33 20 -58
39 -45 35 -64 42 -64 24z"/>
<path d="M1830 2390 c0 -22 71 -87 120 -110 46 -22 52 -22 66 -8 19 18 11 38
-15 38 -9 0 -35 14 -58 30 -49 36 -113 64 -113 50z"/>
<path d="M2091 2198 c14 -50 80 -117 147 -149 34 -16 47 -18 58 -8 18 15 18
39 -1 39 -8 0 -50 34 -94 75 -89 83 -126 97 -110 43z"/>
<path d="M1730 1566 c4 -18 10 -39 14 -45 4 -6 -36 -41 -96 -86 -57 -41 -122
-92 -146 -114 l-43 -40 -68 6 -69 6 -16 -31 c-21 -41 -20 -49 4 -27 18 16 26
17 68 7 26 -6 55 -14 64 -17 13 -5 34 10 81 59 86 90 107 89 24 0 -20 -23 -27
-38 -23 -53 3 -12 9 -30 12 -41 8 -28 -27 -27 -71 3 -47 32 -127 35 -172 7
-18 -11 -33 -24 -33 -29 0 -5 -7 -11 -16 -13 -18 -3 -29 -84 -13 -94 5 -3 9
-1 9 5 0 6 19 28 43 50 53 50 98 60 163 35 39 -15 51 -16 81 -5 19 7 38 9 42
5 4 -5 19 -26 35 -46 15 -21 35 -38 44 -38 9 0 28 -19 40 -41 30 -53 45 -40
36 30 -6 46 -11 55 -44 76 -20 13 -56 29 -79 36 -45 13 -66 32 -56 49 9 15 25
12 25 -5 0 -13 64 -37 163 -61 48 -11 29 3 -35 26 -74 26 -93 40 -55 40 17 0
30 8 38 21 10 20 13 19 58 -27 55 -57 81 -79 139 -119 24 -16 61 -49 82 -73
21 -26 42 -42 49 -38 16 10 14 88 -4 113 -13 19 -87 52 -187 83 -20 6 -48 22
-63 36 -21 20 -26 30 -20 52 7 30 62 106 142 199 55 64 62 76 39 67 -8 -3 -16
2 -19 13 -4 16 -5 16 -6 1 -1 -19 -27 -24 -49 -10 -7 5 -10 16 -7 24 8 21 -20
31 -35 12 -17 -20 -37 -17 -43 6 -3 11 -12 20 -20 20 -12 0 -13 -7 -7 -34z
m109 -62 c5 -4 -44 -63 -127 -154 -50 -54 -62 -73 -57 -89 5 -17 2 -21 -17
-21 -13 0 -33 3 -45 6 -21 6 -21 8 18 65 22 32 74 90 116 129 75 70 81 79 40
59 -22 -10 -22 -10 -2 6 18 14 60 14 74 -1z m11 -37 c-19 -18 -27 -23 -20 -12
27 38 43 55 49 50 3 -3 -10 -20 -29 -38z m-197 -351 c12 -9 14 -16 7 -21 -12
-7 -40 11 -40 26 0 13 12 11 33 -5z"/>
</g>
</svg>
